<svg width="18" height="19" viewBox="0 0 18 19" fill="none" xmlns="http://www.w3.org/2000/svg">
<g id="instagram 1" clip-path="url(#clip0_53_1048)">
<path id="Vector" d="M17.982 5.79206C17.9398 4.83565 17.7852 4.17813 17.5636 3.60838C17.335 3.0036 16.9834 2.46214 16.5227 2.01203C16.0726 1.55491 15.5276 1.19971 14.9298 0.974717C14.3568 0.753162 13.7027 0.598499 12.7463 0.556331C11.7827 0.510592 11.4768 0.500015 9.03299 0.500015C6.58916 0.500015 6.28327 0.510592 5.32329 0.55276C4.36688 0.594928 3.70936 0.749728 3.13975 0.971146C2.53483 1.19971 1.99338 1.55134 1.54326 2.01203C1.08614 2.46214 0.731077 3.00717 0.505951 3.60495C0.284397 4.17813 0.129734 4.83208 0.0875658 5.78849C0.0418264 6.75204 0.03125 7.05794 0.03125 9.50177C0.03125 11.9456 0.0418264 12.2515 0.0839946 13.2115C0.126163 14.1679 0.280963 14.8254 0.502517 15.3952C0.731077 15.9999 1.08614 16.5414 1.54326 16.9915C1.99338 17.4486 2.5384 17.8038 3.13618 18.0288C3.70936 18.2504 4.36331 18.405 5.31986 18.4472C6.2797 18.4895 6.58573 18.5 9.02956 18.5C11.4734 18.5 11.7793 18.4895 12.7393 18.4472C13.6957 18.405 14.3532 18.2504 14.9228 18.0288C16.1325 17.5611 17.0889 16.6047 17.5566 15.3952C17.778 14.822 17.9328 14.1679 17.975 13.2115C18.0172 12.2515 18.0277 11.9456 18.0277 9.50177C18.0277 7.05794 18.0242 6.75204 17.982 5.79206ZM16.3611 13.1412C16.3223 14.0202 16.1747 14.4949 16.0516 14.8114C15.7491 15.5956 15.1268 16.2179 14.3426 16.5204C14.0261 16.6435 13.548 16.7911 12.6724 16.8297C11.723 16.872 11.4382 16.8825 9.03657 16.8825C6.6349 16.8825 6.34659 16.872 5.40062 16.8297C4.52155 16.7911 4.04684 16.6435 3.73038 16.5204C3.34015 16.3762 2.98495 16.1476 2.69664 15.8487C2.39775 15.5568 2.16919 15.2052 2.02497 14.815C1.9019 14.4985 1.75424 14.0202 1.71564 13.1447C1.67334 12.1953 1.6629 11.9104 1.6629 9.50878C1.6629 7.10711 1.67334 6.8188 1.71564 5.87297C1.75424 4.99389 1.9019 4.51919 2.02497 4.20272C2.16919 3.81235 2.39775 3.45729 2.70021 3.16884C2.99195 2.86995 3.34358 2.64139 3.73395 2.49731C4.05042 2.37424 4.52869 2.22658 5.40419 2.18784C6.3536 2.14568 6.63847 2.1351 9.04 2.1351C11.4452 2.1351 11.73 2.14568 12.6759 2.18784C13.555 2.22658 14.0297 2.37424 14.3462 2.49731C14.7364 2.64139 15.0916 2.86995 15.3799 3.16884C15.6788 3.46072 15.9074 3.81235 16.0516 4.20272C16.1747 4.51919 16.3223 4.99732 16.3611 5.87297C16.4032 6.82237 16.4138 7.10711 16.4138 9.50878C16.4138 11.9104 16.4032 12.1918 16.3611 13.1412Z" fill="#4D4D4D"/>
<path id="Vector_2" d="M9.03313 4.8778C6.48037 4.8778 4.40918 6.94885 4.40918 9.50175C4.40918 12.0546 6.48037 14.1257 9.03313 14.1257C11.586 14.1257 13.6571 12.0546 13.6571 9.50175C13.6571 6.94885 11.586 4.8778 9.03313 4.8778ZM9.03313 12.5012C7.37703 12.5012 6.03369 11.158 6.03369 9.50175C6.03369 7.84551 7.37703 6.50231 9.03313 6.50231C10.6894 6.50231 12.0326 7.84551 12.0326 9.50175C12.0326 11.158 10.6894 12.5012 9.03313 12.5012Z" fill="#4D4D4D"/>
<path id="Vector_3" d="M14.9199 4.69499C14.9199 5.29112 14.4365 5.77448 13.8402 5.77448C13.2441 5.77448 12.7607 5.29112 12.7607 4.69499C12.7607 4.09873 13.2441 3.61551 13.8402 3.61551C14.4365 3.61551 14.9199 4.09873 14.9199 4.69499Z" fill="#4D4D4D"/>
</g>
<defs>
<clipPath id="clip0_53_1048">
<rect width="18" height="18" fill="white" transform="translate(0 0.500015)"/>
</clipPath>
</defs>
</svg>
