<svg width="18" height="19" viewBox="0 0 18 19" fill="none" xmlns="http://www.w3.org/2000/svg">
<g id="pinterest 1" clip-path="url(#clip0_53_1031)">
<path id="Vector" d="M9.24446 0.500015C4.31112 0.500015 1.6875 3.66141 1.6875 7.10856C1.6875 8.70726 2.58079 10.7008 4.01073 11.3331C4.22786 11.431 4.34599 11.3894 4.39437 11.188C4.43712 11.035 4.62501 10.2981 4.71614 9.95044C4.74426 9.83906 4.72964 9.7423 4.63963 9.63768C4.16486 9.08865 3.78797 8.08848 3.78797 7.15019C3.78797 4.74596 5.69943 2.41148 8.95195 2.41148C11.7646 2.41148 13.7323 4.23856 13.7323 6.85205C13.7323 9.80531 12.1696 11.8484 10.1389 11.8484C9.01495 11.8484 8.17792 10.9664 8.44343 9.87506C8.76407 8.57563 9.39297 7.17832 9.39297 6.24115C9.39297 5.40074 8.9182 4.70545 7.94841 4.70545C6.80423 4.70545 5.87606 5.83838 5.87606 7.35945C5.87606 8.32587 6.21808 8.9784 6.21808 8.9784C6.21808 8.9784 5.08628 13.5506 4.87589 14.4045C4.52038 15.8502 4.92427 18.1914 4.95915 18.3928C4.98052 18.5042 5.1054 18.5391 5.17516 18.4479C5.28654 18.3017 6.6546 16.3497 7.03824 14.9389C7.17775 14.4248 7.7504 12.34 7.7504 12.34C8.12729 13.0207 9.21521 13.5911 10.374 13.5911C13.8212 13.5911 16.312 10.5613 16.312 6.80142C16.2997 3.19676 13.2148 0.500015 9.24446 0.500015Z" fill="#4D4D4D"/>
</g>
<defs>
<clipPath id="clip0_53_1031">
<rect width="18" height="18" fill="white" transform="translate(0 0.500015)"/>
</clipPath>
</defs>
</svg>
