<svg width="18" height="19" viewBox="0 0 18 19" fill="none" xmlns="http://www.w3.org/2000/svg">
<g id="twitter 1" clip-path="url(#clip0_53_1004)">
<path id="Vector" d="M18 3.91889C17.3306 4.21252 16.6174 4.40714 15.8737 4.50164C16.6388 4.04489 17.2226 3.32714 17.4971 2.46202C16.7839 2.88727 15.9964 3.18764 15.1571 3.35527C14.4799 2.63414 13.5146 2.18752 12.4616 2.18752C10.4186 2.18752 8.77387 3.84577 8.77387 5.87864C8.77387 6.17114 8.79862 6.45239 8.85938 6.72014C5.7915 6.57052 3.07687 5.10014 1.25325 2.86027C0.934875 3.41264 0.748125 4.04489 0.748125 4.72552C0.748125 6.00352 1.40625 7.13639 2.38725 7.79227C1.79437 7.78102 1.21275 7.60889 0.72 7.33777C0.72 7.34902 0.72 7.36364 0.72 7.37827C0.72 9.17152 1.99912 10.661 3.6765 11.0041C3.37612 11.0863 3.04875 11.1256 2.709 11.1256C2.47275 11.1256 2.23425 11.1121 2.01038 11.0626C2.4885 12.524 3.84525 13.5984 5.4585 13.6333C4.203 14.6154 2.60888 15.2071 0.883125 15.2071C0.5805 15.2071 0.29025 15.1936 0 15.1565C1.63462 16.2106 3.57188 16.8125 5.661 16.8125C12.4515 16.8125 16.164 11.1875 16.164 6.31177C16.164 6.14864 16.1584 5.99114 16.1505 5.83477C16.8829 5.31502 17.4982 4.66589 18 3.91889Z" fill="#4D4D4D"/>
</g>
<defs>
<clipPath id="clip0_53_1004">
<rect width="18" height="18" fill="white" transform="translate(0 0.500013)"/>
</clipPath>
</defs>
</svg>
