<svg width="33" height="15" viewBox="0 0 33 15" fill="none" xmlns="http://www.w3.org/2000/svg">
<path id="ApplePay" fill-rule="evenodd" clip-rule="evenodd" d="M6.50659 2.04236C6.12888 2.5081 5.52454 2.87545 4.9202 2.82298C4.84466 2.19323 5.14054 1.52413 5.48677 1.11086C5.86448 0.631998 6.52548 0.290888 7.06057 0.264648C7.12352 0.92063 6.87801 1.56349 6.50659 2.04236ZM7.05348 2.94759C6.52106 2.91566 6.03526 3.11444 5.64287 3.275C5.39035 3.37832 5.17652 3.46582 5.01383 3.46582C4.83127 3.46582 4.60861 3.37364 4.35861 3.27015C4.03103 3.13454 3.65651 2.97951 3.26377 2.98695C2.36356 3.00007 1.5263 3.53141 1.06675 4.37763C0.12247 6.07006 0.821236 8.5759 1.73404 9.95346C2.181 10.6357 2.71609 11.3835 3.42115 11.3573C3.73133 11.3451 3.95446 11.2464 4.18538 11.1443C4.45123 11.0268 4.7274 10.9046 5.15862 10.9046C5.5749 10.9046 5.83899 11.0236 6.0925 11.1377C6.33355 11.2463 6.56504 11.3505 6.90869 11.3441C7.63893 11.331 8.09848 10.6619 8.54544 9.9797C9.02778 9.2475 9.23974 8.5329 9.27191 8.42445L9.27568 8.41191C9.27491 8.41111 9.26895 8.40826 9.25844 8.40325C9.0972 8.32633 7.86479 7.73842 7.85297 6.1619C7.8411 4.83863 8.83048 4.16819 8.98623 4.06265C8.9957 4.05623 9.0021 4.0519 9.00498 4.04964C8.37547 3.07879 7.39342 2.97383 7.05348 2.94759ZM12.1076 11.272V1.04524H15.7903C17.6914 1.04524 19.0197 2.40968 19.0197 4.40386C19.0197 6.39805 17.6662 7.7756 15.7399 7.7756H13.631V11.272H12.1076ZM13.6328 2.38347H15.3891C16.7111 2.38347 17.4665 3.11817 17.4665 4.41045C17.4665 5.70274 16.7111 6.44399 15.3828 6.44399H13.6328V2.38347ZM24.0495 10.0453C23.6466 10.8456 22.759 11.3507 21.8021 11.3507C20.3857 11.3507 19.3973 10.4717 19.3973 9.14662C19.3973 7.83466 20.3542 7.08028 22.1232 6.96877L24.0243 6.85069V6.28655C24.0243 5.45345 23.5018 5.00083 22.5701 5.00083C21.8021 5.00083 21.2418 5.41409 21.1285 6.04384H19.7562C19.8002 4.71875 20.9963 3.75446 22.6142 3.75446C24.358 3.75446 25.4911 4.70564 25.4911 6.18159V11.272H24.081V10.0453H24.0495ZM22.212 10.1372C21.3999 10.1372 20.8837 9.73044 20.8837 9.10726C20.8837 8.4644 21.3811 8.09049 22.3316 8.03145L24.025 7.91994V8.4972C24.025 9.45493 23.2444 10.1372 22.212 10.1372ZM30.1704 11.6721C29.5597 13.463 28.861 14.0534 27.3753 14.0534C27.262 14.0534 26.8843 14.0402 26.7961 14.014V12.7873C26.8906 12.8004 27.1235 12.8136 27.2431 12.8136C27.9167 12.8136 28.2944 12.5184 28.5273 11.7509L28.6658 11.2982L26.0848 3.85286H27.6775L29.4716 9.89444H29.5031L31.2972 3.85286H32.8458L30.1704 11.6721Z" fill="white"/>
</svg>
