<svg width="31" height="19" viewBox="0 0 31 19" fill="none" xmlns="http://www.w3.org/2000/svg">
<g id="Mastercard">
<path id="Left" fill-rule="evenodd" clip-rule="evenodd" d="M21.5585 18.3925C26.515 18.3925 30.533 14.4223 30.533 9.52487C30.533 4.62741 26.515 0.657227 21.5585 0.657227C19.3372 0.657227 17.3043 1.45468 15.7372 2.77567C14.1701 1.45469 12.1372 0.657234 9.91585 0.657234C4.9594 0.657234 0.941406 4.62741 0.941406 9.52488C0.941406 14.4223 4.9594 18.3925 9.91585 18.3925C12.1372 18.3925 14.1701 17.5951 15.7372 16.2741C17.3043 17.5951 19.3372 18.3925 21.5585 18.3925Z" fill="#ED0006"/>
<path id="Right" fill-rule="evenodd" clip-rule="evenodd" d="M15.7363 16.274C17.6658 14.6475 18.8893 12.2274 18.8893 9.52487C18.8893 6.82238 17.6658 4.40225 15.7363 2.77576C17.3035 1.45472 19.3364 0.657227 21.5578 0.657227C26.5142 0.657227 30.5322 4.62741 30.5322 9.52487C30.5322 14.4223 26.5142 18.3925 21.5578 18.3925C19.3364 18.3925 17.3035 17.595 15.7363 16.274Z" fill="#F9A000"/>
<path id="Middle" fill-rule="evenodd" clip-rule="evenodd" d="M15.737 16.2741C17.6665 14.6476 18.8899 12.2275 18.8899 9.52499C18.8899 6.8225 17.6665 4.40237 15.737 2.77588C13.8075 4.40237 12.584 6.8225 12.584 9.52499C12.584 12.2275 13.8075 14.6476 15.737 16.2741Z" fill="#FF5E00"/>
</g>
</svg>
