<svg width="32" height="12" viewBox="0 0 32 12" fill="none" xmlns="http://www.w3.org/2000/svg">
<path id="visa-logo" fill-rule="evenodd" clip-rule="evenodd" d="M8.22885 10.989H5.50272L3.45846 2.96061C3.36143 2.59131 3.15541 2.26482 2.85236 2.11094C2.09606 1.72424 1.26267 1.41649 0.353516 1.26128V0.952183H4.74509C5.35119 0.952183 5.80577 1.41649 5.88153 1.95573L6.94221 7.74685L9.66701 0.952183H12.3174L8.22885 10.989ZM13.8317 10.989H11.2571L13.3771 0.952183H15.9518L13.8317 10.989ZM19.2846 3.73268C19.3604 3.1921 19.815 2.88301 20.3453 2.88301C21.1787 2.8054 22.0865 2.96062 22.8441 3.34598L23.2987 1.18501C22.5411 0.875918 21.7077 0.720703 20.9514 0.720703C18.4526 0.720703 16.6342 2.11095 16.6342 4.04043C16.6342 5.50828 17.9222 6.27901 18.8314 6.74331C19.815 7.20628 20.1938 7.51537 20.118 7.97834C20.118 8.6728 19.3604 8.98189 18.6041 8.98189C17.6949 8.98189 16.7858 8.7504 15.9537 8.3637L15.4991 10.526C16.4083 10.9114 17.3919 11.0666 18.301 11.0666C21.1029 11.1429 22.8441 9.75395 22.8441 7.66925C22.8441 5.04398 19.2846 4.8901 19.2846 3.73268ZM31.8544 10.989L29.8102 0.952183H27.6144C27.1598 0.952183 26.7052 1.26128 26.5537 1.72424L22.7682 10.989H25.4186L25.9476 9.52246H29.2041L29.5071 10.989H31.8544ZM27.9914 3.65506L28.7477 7.43776H26.6276L27.9914 3.65506Z" fill="white"/>
</svg>
